PathFileType	4	(X/Y/Z)	c:/Users/goper/Files/vsCode/490R/osim_files/A04/A04_SSWS_02.trc
DataRate	CameraRate	NumFrames	NumMarkers	Units                	OrigDataRate	OrigDataStartFrame	OrigNumFrames
120.00	120.00	10	36	mm	120.0	445	1186
                Frame#	Time	LPSIS			LASIS			LTH1			LTH2			LTH3			LTH4			LLFE			LMFE			LSH1			LSH2			LSH3			LSH4			LLMAL			LMMAL			LCAL			LMTP5			LTOE			LMTP1			RPSIS			RASIS			RTH1			RTH2			RTH3			RTH4			RLFE			RMFE			RSH1			RSH2			RSH3			RSH4			RLMAL			RMMAL			RCAL			RMTP1			RTOE			RMTP5		
		X1	Y1	Z1	X2	Y2	Z2	X3	Y3	Z3	X4	Y4	Z4	X5	Y5	Z5	X6	Y6	Z6	X7	Y7	Z7	X8	Y8	Z8	X9	Y9	Z9	X10	Y10	Z10	X11	Y11	Z11	X12	Y12	Z12	X13	Y13	Z13	X14	Y14	Z14	X15	Y15	Z15	X16	Y16	Z16	X17	Y17	Z17	X18	Y18	Z18	X19	Y19	Z19	X20	Y20	Z20	X21	Y21	Z21	X22	Y22	Z22	X23	Y23	Z23	X24	Y24	Z24	X25	Y25	Z25	X26	Y26	Z26	X27	Y27	Z27	X28	Y28	Z28	X29	Y29	Z29	X30	Y30	Z30	X31	Y31	Z31	X32	Y32	Z32	X33	Y33	Z33	X34	Y34	Z34	X35	Y35	Z35	X36	Y36	Z36

445	3.70000	-673.83826	1054.38452	422.23007	-899.07605	998.27783	492.43860	-745.71704	661.76190	508.53586	-743.93280	617.38531	506.33151	-806.49384	655.88403	507.62473	-797.57104	612.05933	505.38507	-751.60406	524.78693	489.21915	-771.99170	529.57361	350.61749	-703.50031	429.32272	484.78555	-703.56696	385.91803	480.79205	-764.35803	422.68805	475.41409	-755.03796	380.58575	470.59277	-633.55396	110.97529	420.99448	-658.97772	114.21391	338.04739	-573.41125	71.78879	362.64938	-772.45740	60.61367	461.24429	-823.87518	74.30917	402.89774	-808.52374	58.96692	357.86288	-666.56946	1043.49854	315.82474	-883.53253	1019.41589	208.07343	-897.62091	725.43481	169.20160	-920.57037	689.52295	168.48755	-951.13916	753.39490	153.45406	-969.32495	709.29456	157.46283	-1031.61560	587.08929	184.04779	-1053.40955	587.62927	301.33548	-1044.37061	351.70520	196.86858	-1064.50623	307.99747	203.72559	-1101.50305	368.09833	182.75529	-1112.11499	321.17032	189.03078	-1142.43860	129.84795	192.05618	-1184.58667	151.66096	320.40494	-1109.83398	61.50630	278.94296	-1320.46655	144.44106	278.83737	-1326.40918	172.06845	230.88132	-1295.72241	129.93205	164.31190
446	3.70833	-682.66357	1052.84338	421.74033	-907.88086	997.12933	491.71597	-751.14630	661.51416	508.46014	-749.12134	617.15338	506.33752	-811.94189	655.05896	507.29944	-802.68146	611.37610	505.20444	-755.79401	524.42743	489.07068	-776.42572	528.92767	350.51392	-706.72998	429.38370	484.65970	-706.55237	385.94785	480.66861	-767.68713	422.13074	475.29391	-758.01599	380.21335	470.49008	-634.01501	111.42899	421.00568	-659.53198	114.36990	337.96130	-573.69177	72.45547	362.59241	-772.57532	60.53167	461.22440	-824.02271	74.06322	402.94717	-808.72003	58.70934	357.89212	-675.49017	1041.87842	315.38007	-892.77600	1017.94653	207.36977	-905.38763	723.19794	169.96252	-928.03345	687.11731	169.24315	-959.03448	750.67078	153.70482	-976.43060	706.34216	157.70598	-1038.74414	584.59808	186.06241	-1060.48352	585.08167	303.46432	-1056.39819	349.63507	199.32114	-1077.78052	306.49414	205.94318	-1112.84363	367.43130	184.27927	-1124.73474	320.57843	190.61705	-1160.21558	130.37131	193.57718	-1203.73560	153.61488	321.21259	-1130.68274	61.45103	281.17365	-1338.77026	149.98152	277.77811	-1343.56641	177.57437	229.46985	-1313.09180	134.43259	163.50237
447	3.71667	-691.48920	1051.29175	421.09021	-916.50635	995.93030	491.07245	-756.77020	661.30792	508.41296	-754.53345	616.84692	506.26395	-817.50903	654.45990	507.22894	-808.02380	610.70398	505.07025	-760.23151	524.03186	488.92526	-781.06036	528.33063	350.36984	-710.40771	429.47137	484.41858	-709.69830	385.98361	480.54358	-771.21271	421.63318	475.25424	-761.20697	379.80371	470.35901	-634.45764	111.92599	420.94312	-660.15430	114.58160	337.77249	-574.02155	73.08566	362.58585	-772.72437	60.46022	461.21979	-823.95557	73.23943	402.86685	-809.00201	58.47364	357.93127	-684.58167	1040.21021	314.73376	-902.07965	1016.42120	206.70557	-913.62708	720.93787	170.69490	-935.91840	684.72626	170.04340	-967.26715	747.97217	153.95480	-984.48041	703.49597	158.19260	-1046.04187	582.09869	188.11583	-1067.38696	582.57477	305.75522	-1068.23645	347.45215	201.79700	-1090.50085	304.92017	208.17038	-1123.82153	366.59555	185.84018	-1136.72302	319.88647	192.22878	-1176.83655	130.68892	195.04250	-1221.51794	155.31801	322.01389	-1150.16663	61.38241	283.18149	-1356.34277	154.71452	276.53113	-1359.46155	182.36737	228.24643	-1329.01624	138.34085	162.79179
448	3.72500	-700.47968	1049.68176	420.29565	-925.45361	994.64368	490.71561	-762.83813	660.91510	508.26535	-760.11414	616.56055	506.11502	-823.51691	653.66803	506.89661	-813.61304	610.02808	504.86209	-764.94904	523.59619	488.77829	-785.94769	527.66492	350.19037	-714.12549	429.56061	484.30118	-713.19336	386.05670	480.36560	-775.04370	421.10449	475.09482	-764.58276	379.39346	470.21933	-634.89105	112.54255	420.75916	-660.76019	114.85364	337.44751	-574.28473	73.76346	362.42603	-772.88245	60.42323	461.19205	-824.25702	73.05569	402.89380	-809.22101	58.27140	357.97543	-693.83490	1038.50793	313.90042	-911.61389	1014.84418	206.17465	-922.13635	718.60852	171.50793	-944.11688	682.30908	171.02235	-975.92999	745.17664	154.42287	-992.80786	700.74872	158.85010	-1053.58252	579.63477	190.30115	-1074.19678	580.04468	308.13718	-1079.40015	345.40262	204.03076	-1102.37671	303.46408	210.12218	-1134.32544	365.57468	187.44244	-1148.15405	318.98599	193.84618	-1192.08521	130.92082	196.43230	-1237.78540	156.58574	322.83588	-1167.89526	61.25612	284.95816	-1371.73584	158.66324	275.94730	-1374.08838	186.37994	227.45107	-1344.47656	141.19788	162.64261
449	3.73333	-709.41541	1048.02100	419.40939	-934.28491	993.21783	490.33084	-768.93884	660.47363	508.13281	-765.92291	616.20807	505.99222	-829.60010	652.80017	506.63480	-819.35315	609.25861	504.52103	-769.93768	523.11530	488.62216	-791.04382	526.81207	349.99390	-718.26099	429.57291	484.10901	-716.68488	386.12036	480.21228	-778.89026	420.51462	474.92398	-767.95349	378.86115	470.05142	-635.41107	113.19302	420.56702	-661.62787	115.84695	337.40616	-574.55231	74.47032	362.28186	-773.03802	60.33186	461.19153	-824.58679	72.82700	402.95026	-809.43042	58.01286	357.98923	-703.25964	1036.67090	312.96060	-921.53442	1013.44617	205.67743	-930.79224	716.38354	172.36710	-952.71143	679.91138	172.16602	-984.73700	742.47382	154.93193	-1001.21729	698.02606	159.61102	-1061.65601	577.06036	193.22231	-1081.00610	577.66614	310.38348	-1089.83008	343.50656	206.03421	-1113.77930	301.89639	212.09457	-1144.38538	364.45312	189.05072	-1159.06360	317.93069	195.51501	-1206.25317	130.78175	197.69214	-1252.36938	157.23291	323.69540	-1183.83899	60.72530	286.51471	-1385.95593	161.55373	275.65121	-1387.42273	189.29218	227.15109	-1357.70825	143.74602	162.50630
450	3.74167	-718.54346	1046.28381	418.37079	-943.36859	991.89191	490.09549	-775.31653	660.11511	507.93634	-772.00494	615.76404	505.75583	-835.84326	652.02637	506.36285	-825.44214	608.49493	504.21667	-775.14246	522.57452	488.43652	-796.43915	526.12231	349.80804	-722.42432	429.69614	483.95343	-720.54291	386.14505	480.08826	-783.01904	419.89447	474.79803	-771.71912	378.35806	469.97510	-636.08020	113.92413	420.61896	-662.36957	116.36013	337.32977	-575.00232	75.54757	362.24387	-773.27716	60.23278	461.25031	-825.00812	72.56728	403.04578	-809.60278	57.75114	358.02008	-713.18286	1034.51880	311.51059	-931.48810	1011.99658	205.36432	-940.61377	713.98187	173.66486	-961.52985	677.58478	173.35590	-993.93109	739.86310	155.74643	-1010.42157	695.25018	160.87309	-1069.73572	574.61688	195.12437	-1087.98669	575.58032	312.56445	-1100.18213	341.36783	208.05675	-1124.50745	300.15280	213.82753	-1154.13147	363.10852	190.59070	-1169.36719	316.68713	197.09357	-1218.89209	130.31131	198.94894	-1265.45703	157.25917	324.78107	-1197.88464	59.90181	287.95767	-1398.77063	163.33273	276.04474	-1399.57031	191.14456	227.52853	-1370.08154	145.30113	162.96941
451	3.75000	-728.23987	1044.59717	416.72427	-952.61371	990.56915	489.81293	-782.12823	659.75354	507.68140	-778.46161	615.44952	505.52939	-842.50916	651.27850	506.01978	-831.81311	607.78815	503.79483	-780.72852	522.00177	488.22287	-802.07153	525.30762	349.63489	-726.96973	429.76489	483.82065	-723.26318	387.27634	479.41647	-788.34918	418.08319	475.16724	-775.59644	377.85565	469.80847	-636.84070	114.75140	420.66150	-663.24994	116.98676	337.20755	-575.51965	76.73459	362.23083	-773.59003	60.18919	461.32095	-825.45142	72.36578	403.11667	-809.74664	57.46918	358.01163	-722.49719	1032.87292	310.41367	-941.69751	1010.47974	205.13585	-949.63397	711.88562	174.18243	-970.58801	675.32758	174.30608	-1003.35315	737.42236	156.61378	-1019.47284	692.56512	162.22008	-1078.03589	572.24231	196.69576	-1094.98169	573.40350	314.59802	-1109.79883	339.26651	209.62250	-1134.48767	298.34174	215.37971	-1164.31665	361.34201	192.43755	-1179.20703	315.15350	198.66766	-1230.42542	129.26442	200.44144	-1276.97095	156.69438	326.16183	-1210.06335	58.66239	289.41400	-1410.10730	163.87531	277.13965	-1410.54749	191.83615	228.60367	-1381.26294	145.77089	164.08437
452	3.75833	-737.49011	1042.95947	415.32538	-961.75580	989.27344	489.73676	-788.99420	659.38885	507.39029	-784.99585	615.06854	505.37439	-849.19946	650.46875	505.52930	-838.29700	607.05725	503.52350	-786.38910	521.53229	488.05380	-807.76678	524.40393	349.41052	-731.64685	429.84943	483.65494	-728.44916	386.51154	479.57486	-792.76062	417.62561	475.03513	-779.65625	377.42474	469.68146	-637.64185	115.69839	420.78653	-664.00299	117.82404	337.23022	-575.77423	78.32822	362.31296	-773.92462	60.11855	461.37909	-825.91626	72.11331	403.16489	-810.01837	57.20070	358.06860	-732.02539	1031.16187	309.13474	-951.93231	1009.04834	204.93040	-958.79224	709.97772	174.52017	-979.94403	673.28204	175.02467	-1013.07458	735.25824	157.61154	-1029.11548	690.45697	163.36079	-1086.83838	570.04694	197.97995	-1101.91602	571.05493	316.53674	-1118.88635	337.23990	210.94572	-1143.88269	296.28467	216.85901	-1173.31970	359.49841	193.88306	-1188.41895	313.30811	200.16145	-1240.50439	127.68200	202.12122	-1286.70227	155.29553	327.92117	-1220.43286	56.96764	291.03540	-1419.98889	163.15041	279.10809	-1420.30066	191.09027	230.57202	-1391.03711	145.08347	165.88885
453	3.76667	-746.95178	1041.29346	413.83051	-969.89764	987.61188	490.24344	-796.03961	658.98993	507.08609	-791.83759	614.68250	505.15240	-856.29327	649.69006	505.11960	-845.06659	606.29663	503.17841	-792.43518	520.94263	487.90500	-813.83594	523.61719	349.30484	-736.49731	429.99673	483.51666	-732.75220	386.65295	479.52524	-797.27570	417.10339	474.95981	-783.87128	376.96280	469.53882	-638.49963	116.79545	420.91180	-665.16003	118.62342	337.04947	-576.65869	79.73827	362.18765	-774.23291	59.99744	461.44659	-826.39612	71.87323	403.24188	-810.35291	56.95403	358.11429	-741.71375	1029.51282	307.78403	-962.40564	1007.58630	204.83806	-968.59418	708.16626	174.67291	-989.64209	671.42175	175.44258	-1023.07086	733.24652	158.45975	-1039.33203	688.58527	164.41513	-1095.99792	567.93048	199.02307	-1109.18359	568.57709	318.30869	-1127.67688	335.03278	212.17021	-1152.53394	294.18253	218.23509	-1181.93896	357.23816	195.26660	-1197.33276	311.07394	201.77826	-1249.32019	125.40542	204.07640	-1294.84863	153.13148	330.12949	-1228.78821	54.75563	293.02463	-1428.44458	160.91229	281.90378	-1428.99817	188.92458	233.37552	-1400.31665	142.64900	168.73563
454	3.77500	-756.70374	1039.65967	412.24713	-979.76251	986.33282	490.02893	-803.48108	658.55884	506.81055	-798.77582	614.39008	504.99429	-863.66510	648.80981	504.67001	-851.95386	605.56989	502.85507	-798.51617	520.32648	487.83936	-820.06067	522.65125	349.14706	-741.56116	430.12570	483.43146	-737.32745	386.72430	479.39285	-802.17444	416.52982	474.96790	-788.26837	376.43677	469.49628	-639.55615	117.89402	421.05368	-666.17889	119.57923	337.10172	-577.15070	81.45092	362.21924	-774.59955	59.93647	461.54742	-826.95990	71.63197	403.33582	-810.76221	56.75632	358.21677	-752.35040	1027.73438	305.87695	-972.83368	1006.05182	204.75026	-978.69604	706.58514	174.56662	-999.86481	669.64886	175.57523	-1033.44714	731.48041	159.22801	-1049.62146	686.84625	165.29552	-1105.55603	566.03815	199.81657	-1116.78918	566.16083	319.96545	-1136.10352	332.71039	213.25786	-1160.78772	291.63675	219.50525	-1190.53833	354.68085	196.80161	-1205.74780	308.42194	203.40782	-1256.85986	122.54129	206.33400	-1301.53674	150.05542	332.61884	-1235.30396	51.97582	295.09482	-1435.47815	157.21497	285.61087	-1436.61987	185.08311	237.07825	-1408.07629	139.15379	172.09743
